<svg xmlns="http://www.w3.org/2000/svg" xmlns:xlink="http://www.w3.org/1999/xlink" width="1000" viewBox="78 0 672 149.999998" height="200" preserveAspectRatio="xMinYMid meet" version="1.0"><defs><clipPath id="9c2f4db848"><path d="M 620.800781 42.191406 L 669.550781 42.191406 L 669.550781 90.941406 L 620.800781 90.941406 Z M 620.800781 42.191406 " clip-rule="nonzero"/></clipPath><clipPath id="46b2083d5c"><path d="M 254 7.5 L 281 7.5 L 281 139 L 254 139 Z M 254 7.5 " clip-rule="nonzero"/></clipPath><clipPath id="d38e3559b3"><path d="M 283 7.5 L 620.800781 7.5 L 620.800781 142 L 283 142 Z M 283 7.5 " clip-rule="nonzero"/></clipPath><clipPath id="c72dd84b04"><path d="M 80.800781 39 L 271 39 L 271 142 L 80.800781 142 Z M 80.800781 39 " clip-rule="nonzero"/></clipPath></defs><g clip-path="url(#9c2f4db848)"><path fill="#250d18" d="M 644.996094 42.191406 C 631.660156 42.191406 620.800781 53.050781 620.800781 66.382812 C 620.800781 79.71875 631.660156 90.578125 644.996094 90.578125 C 658.328125 90.578125 669.1875 79.71875 669.1875 66.382812 C 669.1875 53.050781 658.328125 42.191406 644.996094 42.191406 Z M 644.996094 47.027344 C 655.710938 47.027344 664.347656 55.664062 664.347656 66.382812 C 664.347656 77.101562 655.710938 85.738281 644.996094 85.738281 C 634.277344 85.738281 625.640625 77.101562 625.640625 66.382812 C 625.640625 55.664062 634.277344 47.027344 644.996094 47.027344 Z M 637.738281 56.707031 L 637.738281 76.0625 L 641.722656 76.0625 L 641.722656 68.972656 L 644.90625 68.972656 L 648.535156 76.0625 L 652.808594 76.0625 L 652.808594 75.875 L 648.625 67.96875 C 649.152344 67.726562 649.632812 67.445312 650.058594 67.117188 C 650.484375 66.789062 650.847656 66.402344 651.152344 65.964844 C 651.453125 65.527344 651.679688 65.023438 651.839844 64.460938 C 652 63.898438 652.082031 63.265625 652.082031 62.554688 C 652.082031 61.597656 651.917969 60.753906 651.589844 60.027344 C 651.265625 59.300781 650.792969 58.695312 650.183594 58.203125 C 649.570312 57.710938 648.820312 57.339844 647.933594 57.085938 C 647.046875 56.832031 646.046875 56.707031 644.929688 56.707031 Z M 641.730469 59.9375 L 644.933594 59.9375 C 646.003906 59.9375 646.800781 60.195312 647.320312 60.71875 C 647.835938 61.242188 648.09375 61.960938 648.09375 62.871094 C 648.09375 63.304688 648.027344 63.699219 647.894531 64.050781 C 647.761719 64.398438 647.5625 64.699219 647.300781 64.953125 C 647.039062 65.207031 646.710938 65.398438 646.316406 65.539062 C 645.921875 65.675781 645.464844 65.746094 644.941406 65.746094 L 641.730469 65.746094 Z M 641.730469 59.9375 " fill-opacity="1" fill-rule="nonzero"/></g><g clip-path="url(#46b2083d5c)"><path fill="#250d18" d="M 254.714844 42.613281 C 282.695312 59.390625 274.734375 98.886719 257.738281 120.917969 C 257.328125 121.453125 254.714844 124.097656 254.714844 124.347656 L 254.714844 138.921875 L 280.460938 138.921875 L 280.460938 7.996094 L 254.714844 7.996094 Z M 254.714844 42.613281 " fill-opacity="1" fill-rule="nonzero"/></g><path fill="#250d18" d="M 505.550781 13.1875 L 530.917969 13.1875 L 530.917969 35.597656 L 505.550781 35.597656 Z M 505.550781 13.1875 " fill-opacity="1" fill-rule="nonzero"/><g clip-path="url(#d38e3559b3)"><path fill="#250d18" d="M 532.207031 138.886719 L 532.207031 64.363281 L 559.148438 138.824219 L 585.742188 138.886719 L 620.832031 42.015625 L 593.957031 42.015625 L 572.933594 113.523438 L 553.042969 42.015625 L 496.613281 42.015625 L 496.613281 15.925781 L 471.246094 15.925781 L 471.246094 42.015625 L 457.996094 42.015625 L 457.996094 60.175781 L 471.246094 60.175781 L 471.246094 103.671875 L 447.011719 103.671875 C 445.058594 124.128906 417.804688 127.210938 411.824219 106.851562 C 408.269531 94.703125 408.113281 69.710938 421.332031 63.039062 C 433.195312 57.0625 445.660156 63.039062 447.042969 76.417969 L 468.632812 76.417969 L 468.632812 62.410156 L 455.382812 62.410156 L 455.382812 45.761719 C 445.5625 40.601562 434.832031 38.617188 423.753906 39.71875 C 410.628906 41.042969 399.835938 46.644531 392.5 57.660156 C 391.527344 59.105469 390.832031 60.933594 389.953125 62.285156 C 389.039062 63.671875 388.945312 61.5 388.285156 60.398438 C 373.273438 35.15625 333.554688 31.789062 314.511719 53.882812 C 312.53125 56.210938 311.082031 58.886719 309.226562 61.277344 L 309.226562 7.996094 L 283.480469 7.996094 L 283.480469 138.886719 L 309.226562 138.886719 L 309.226562 119.972656 L 314.324219 127.179688 C 322.664062 137.03125 335.789062 140.996094 348.410156 141.53125 C 365.121094 142.257812 381.582031 135.898438 389.667969 120.730469 C 395.710938 131.585938 405.847656 138.667969 418.183594 140.683594 C 438.703125 144.050781 458.625 138.070312 468.316406 118.714844 L 471.277344 112.011719 L 471.277344 123.9375 C 473.386719 140.996094 489.5 144.425781 503.660156 139.390625 M 345.355469 60.617188 C 357.726562 58.886719 366.316406 65.9375 368.425781 77.957031 C 368.519531 78.523438 369.179688 80.980469 368.425781 80.980469 L 329.242188 80.980469 C 330.0625 70.8125 334.433594 62.128906 345.386719 60.585938 Z M 368.046875 110.5 C 366.285156 115.660156 362.035156 119.09375 356.8125 120.445312 C 342.210938 124.253906 331.320312 116.195312 328.992188 101.878906 C 328.863281 101.121094 328.078125 97.25 329.085938 97.25 L 383.816406 97.25 C 384.003906 101.71875 384.824219 106.125 385.703125 110.5 Z M 506.808594 118.527344 C 505.390625 119.28125 501.710938 121.578125 497.714844 118.652344 C 497.398438 118.398438 496.546875 117.707031 496.582031 116.386719 L 496.582031 60.207031 L 506.808594 60.207031 Z M 506.808594 118.527344 " fill-opacity="1" fill-rule="nonzero"/></g><g clip-path="url(#c72dd84b04)"><path fill="#250d18" d="M 223.148438 40.128906 C 190.640625 43.75 167.820312 71.726562 168.386719 104.015625 L 144.15625 104.015625 C 142.707031 123.90625 115.988281 127.308594 109.597656 108.109375 C 105.789062 96.714844 105.695312 71.980469 116.929688 64.519531 C 125.113281 59.074219 137.355469 60.332031 142.109375 69.585938 C 143.367188 72.074219 143.746094 74.75 144.753906 77.171875 L 170.117188 77.171875 C 170.78125 77.171875 170.308594 74.621094 170.246094 73.992188 C 167.066406 43.9375 133.421875 33.457031 107.992188 43.085938 C 91.972656 49.160156 84.042969 64.582031 81.714844 80.789062 C 76.742188 115.628906 91.753906 144.332031 130.339844 141.847656 C 149 140.652344 164.171875 129.257812 168.386719 110.847656 L 170.75 119.628906 C 179.058594 141.625 205.777344 145.121094 226.015625 139.488281 C 279.011719 124.757812 292.292969 32.449219 223.148438 40.160156 Z M 216.636719 120.226562 C 205.933594 121.203125 196.019531 117.675781 194.917969 105.71875 C 193.34375 88.628906 202.03125 63.386719 221.734375 61.371094 C 233.378906 60.175781 242.789062 64.269531 243.796875 76.953125 C 245.148438 94.105469 236.367188 118.429688 216.667969 120.226562 Z M 216.636719 120.226562 " fill-opacity="1" fill-rule="nonzero"/></g></svg>
